<svg xmlns="http://www.w3.org/2000/svg" xmlns:xlink="http://www.w3.org/1999/xlink" width="24" height="32" viewBox="0 0 24 32">
  <g id="Group_217586" data-name="Group 217586" transform="translate(0 0)">
    <g id="Group_217585" data-name="Group 217585" transform="translate(0 0)" clip-path="url(#clip-path)">
      <path id="Path_415067" data-name="Path 415067" d="M12.323,35.082c-.047,0-.1,0-.145,0-1.428-.087-2.7-1.435-3.509-2.55A18.141,18.141,0,0,1,6.2,27.537,29.257,29.257,0,0,1,5.162,15.777c.4-2.568,1.079-3.956,2.122-4.363,1.4-.549,3.19.857,5.082,2.35a17.9,17.9,0,0,0,3.978,2.626c.857.345,1.642.61,2.336.846,2.6.883,4.178,1.413,3.313,4.33a13.228,13.228,0,0,1-2.616,4.454A28.587,28.587,0,0,0,15.5,32.2c-.872,1.911-1.944,2.881-3.182,2.881ZM5.5,15.828a28.9,28.9,0,0,0,1.028,11.6c1.09,3.44,3.448,7.167,5.667,7.3,1.144.073,2.151-.832,2.993-2.674A28.825,28.825,0,0,1,19.1,25.808a12.782,12.782,0,0,0,2.557-4.341c.77-2.6-.44-3.008-3.091-3.905-.7-.236-1.489-.5-2.354-.854a18.253,18.253,0,0,1-4.065-2.674c-1.813-1.428-3.524-2.779-4.744-2.3-.9.352-1.526,1.693-1.9,4.094Z" transform="translate(-3.164 -7.191)" fill="#fff"/>
      <path id="Path_415068" data-name="Path 415068" d="M9.733,33.395a2.675,2.675,0,0,1-.48-.044c-1.3-.229-2.594-1.406-3.734-3.408a20.9,20.9,0,0,1-2.183-6.056A33.882,33.882,0,0,1,3.67,10.25c.8-2.913,1.769-4.428,3.037-4.766,1.711-.458,3.589,1.4,5.576,3.368a20.633,20.633,0,0,0,4.2,3.513c.934.5,1.8.912,2.565,1.271,2.9,1.362,4.654,2.187,3.262,5.471a15.318,15.318,0,0,1-3.586,4.784A32.907,32.907,0,0,0,13.5,30.463C12.327,32.414,11.059,33.4,9.73,33.4ZM4.172,10.385a33.322,33.322,0,0,0-.327,13.4,20.391,20.391,0,0,0,2.125,5.9c.737,1.3,1.922,2.9,3.371,3.15,1.275.222,2.525-.668,3.713-2.648a33.273,33.273,0,0,1,5.3-6.666,14.71,14.71,0,0,0,3.48-4.625c1.2-2.823-.033-3.4-3-4.8-.77-.363-1.646-.774-2.59-1.286a20.913,20.913,0,0,1-4.323-3.6C10.042,7.351,8.266,5.6,6.842,5.978c-1.057.283-1.933,1.722-2.67,4.4Z" transform="translate(-1.777 -3.447)" fill="#fff"/>
      <path id="Path_415069" data-name="Path 415069" d="M6.885,32a3.145,3.145,0,0,1-.8-.1C4.618,31.517,3.252,30.06,2.14,27.68A23.8,23.8,0,0,1,.211,20.615,38.421,38.421,0,0,1,1.817,5.194C3,1.946,4.237.311,5.722.039,7.728-.328,9.7,1.953,11.778,4.369a23.262,23.262,0,0,0,4.428,4.345c1.01.654,1.954,1.192,2.786,1.667,3.186,1.82,5.111,2.917,3.219,6.55a17.417,17.417,0,0,1-4.5,5.1,37.321,37.321,0,0,0-6.5,6.953C9.777,30.99,8.327,32,6.881,32ZM2.467,5.426A37.73,37.73,0,0,0,.894,20.535a23.079,23.079,0,0,0,1.871,6.851C3.79,29.573,5,30.9,6.26,31.226c1.4.36,2.877-.527,4.385-2.641a37.823,37.823,0,0,1,6.612-7.073,16.674,16.674,0,0,0,4.341-4.9c1.588-3.044.258-3.8-2.946-5.631-.839-.48-1.791-1.021-2.819-1.689a23.79,23.79,0,0,1-4.577-4.476C9.308,2.56,7.466.42,5.849.718c-1.2.222-2.307,1.758-3.378,4.7Z" transform="translate(0 0)" fill="#fff"/>
    </g>
  </g>
</svg>
