<?xml version="1.0" standalone="no"?>
<!DOCTYPE svg PUBLIC "-//W3C//DTD SVG 20010904//EN"
 "http://www.w3.org/TR/2001/REC-SVG-20010904/DTD/svg10.dtd">
<svg version="1.0" xmlns="http://www.w3.org/2000/svg"
 width="450.000000pt" height="450.000000pt" viewBox="0 0 450.000000 450.000000"
 preserveAspectRatio="xMidYMid meet">

<g transform="translate(0.000000,450.000000) scale(0.200000,-0.200000)"
fill="#14b8a6" stroke="none">
<path d="M1006 1835 c4 -16 13 -48 21 -69 7 -22 11 -41 9 -43 -2 -2 -19 5 -37
16 -19 12 -37 21 -41 21 -4 0 5 -34 19 -76 21 -64 23 -78 12 -85 -8 -5 -42
-25 -76 -44 l-63 -36 -20 34 c-27 45 -57 57 -143 57 -90 0 -125 -19 -166 -92
-43 -74 -48 -109 -23 -157 19 -35 19 -41 6 -52 -50 -41 -53 -85 -24 -354 24
-214 38 -265 83 -299 18 -13 142 -81 276 -152 211 -110 251 -128 290 -128 39
1 82 20 296 134 138 73 262 144 277 158 39 36 45 61 72 309 26 237 25 266 -16
318 -20 26 -20 28 -5 55 24 39 21 93 -7 148 -50 99 -88 118 -213 110 -67 -4
-84 -15 -118 -73 -10 -16 -15 -15 -68 15 -47 26 -70 51 -138 143 -103 141
-103 141 -96 93 l6 -40 -60 60 c-56 55 -60 57 -53 29z m190 -232 c-9 29 7 19
36 -22 21 -29 73 -64 235 -157 221 -127 267 -160 277 -199 3 -13 -5 -127 -19
-252 -19 -177 -29 -234 -43 -253 -17 -23 -155 -101 -434 -247 -103 -54 -109
-56 -145 -45 -21 7 -146 69 -278 140 -185 99 -243 135 -256 157 -22 38 -70
456 -58 499 5 16 16 37 25 47 10 11 132 85 271 165 274 158 261 146 236 210
-6 16 -3 16 31 -4 46 -27 49 -27 40 1 -4 12 -9 29 -11 37 -3 8 19 -10 47 -40
29 -30 50 -47 46 -37z m-430 -51 c12 -8 37 -52 32 -57 -2 -1 -56 -33 -122 -71
-113 -65 -119 -67 -132 -49 -20 27 -17 49 11 105 34 67 56 80 135 80 36 0 70
-4 76 -8z m895 -13 c12 -12 32 -45 45 -74 21 -45 23 -57 13 -79 -7 -14 -17
-26 -22 -26 -13 0 -247 133 -247 141 0 3 11 18 25 33 22 23 31 26 95 26 58 0
74 -4 91 -21z"/>
<path d="M833 1239 c-78 -29 -55 -139 28 -139 32 0 69 41 69 74 -1 44 -55 81
-97 65z"/>
<path d="M1331 1214 c-27 -35 -26 -59 4 -89 63 -63 160 18 105 88 -29 37 -80
37 -109 1z"/>
<path d="M1070 1057 c-40 -20 -38 -53 4 -78 34 -20 36 -24 36 -70 l0 -49 -54
0 c-60 0 -102 25 -108 63 -4 29 -38 36 -38 7 0 -33 28 -78 59 -94 25 -13 29
-23 38 -91 6 -41 17 -82 23 -90 16 -20 192 -21 207 -2 6 6 16 48 22 92 6 44
17 82 24 84 6 2 24 17 39 32 31 31 40 89 13 89 -8 0 -15 -9 -15 -20 0 -12 -11
-32 -25 -45 -20 -21 -34 -25 -85 -25 l-60 0 0 55 c0 40 4 55 14 55 8 0 24 8
36 18 61 49 -51 109 -130 69z m38 -304 c-3 -76 -4 -78 -28 -78 -23 0 -26 5
-36 72 -6 40 -8 75 -6 78 3 3 21 5 39 5 l34 0 -3 -77z m118 20 c-13 -96 -16
-103 -41 -103 -27 0 -35 22 -35 98 l0 52 41 0 41 0 -6 -47z"/>
</g>
</svg>
