<svg width="231" height="231" viewBox="0 0 231 231" fill="none" xmlns="http://www.w3.org/2000/svg">
<path d="M115.444 227.967C177.583 227.967 227.958 177.592 227.958 115.453C227.958 53.3129 177.583 2.93872 115.444 2.93872C53.3039 2.93872 2.92969 53.3129 2.92969 115.453C2.92969 177.592 53.3039 227.967 115.444 227.967Z" fill="#FF8000"/>
<path d="M204.346 121.415C205.167 98.1841 199.871 84.7953 194.076 77.1309C189.315 70.8947 181.96 67.0382 167.548 67.1811L129.928 68.0504L118.408 57.5294C114.923 54.3508 110.772 51.9909 106.259 50.6217C101.745 49.2524 96.9835 48.9085 92.3202 49.6152C21.6866 60.2667 24.2928 138.541 24.2928 138.541C17.9934 138.847 11.7988 140.273 6.00049 142.754C13.8434 164.819 21.0437 190.989 68.0297 218.1C68.839 213.994 79.1813 184.277 79.1813 184.277C79.1813 184.277 89.4995 153.548 113.552 164.545C133.784 173.804 155.409 173.602 164.049 173.138C169.935 172.817 175.543 170.529 179.972 166.64C185.767 161.601 190.717 155.666 194.635 149.062C194.635 149.062 141.079 138.422 115.884 112.168C140.472 133.495 204.346 121.415 204.346 121.415Z" fill="#00CE84"/>
<path d="M185.787 94.8142C188.167 93.6241 186.501 85.0198 185.37 82.6038C184.824 81.4439 183.839 80.5479 182.633 80.1138C181.427 79.6797 180.097 79.7426 178.937 80.2887C177.777 80.8347 176.882 81.8194 176.448 83.0257C176.014 84.2321 176.076 85.5616 176.623 86.7216C177.765 89.1375 183.371 95.9448 185.787 94.8142Z" fill="#0C1256"/>
<path d="M111.445 75.5578C111.23 68.5836 107.422 63.0497 102.935 63.1806C98.4487 63.3115 94.9616 69.1313 95.1759 76.0459C95.3901 82.9605 99.1984 88.5539 103.685 88.423C108.172 88.2921 111.588 82.52 111.445 75.5578Z" fill="#0C1256"/>
<path d="M106.356 75.3934C107.532 75.3581 108.437 73.7317 108.378 71.7607C108.319 69.7897 107.318 68.2206 106.142 68.2559C104.966 68.2912 104.06 69.9176 104.119 71.8886C104.179 73.8596 105.18 75.4287 106.356 75.3934Z" fill="white"/>
<path d="M115.442 0.0582275C92.6095 0.0582275 70.2897 6.82901 51.3054 19.5139C32.3211 32.1988 17.5252 50.2283 8.78766 71.3225C0.0501619 92.4167 -2.23616 115.628 2.21818 138.022C6.67252 160.415 17.6673 180.985 33.8121 197.129C49.9569 213.274 70.5266 224.269 92.9201 228.723C115.314 233.178 138.525 230.892 159.619 222.155C180.713 213.417 198.743 198.62 211.428 179.636C224.113 160.652 230.883 138.332 230.883 115.5C230.861 84.8896 218.692 55.5394 197.047 33.8947C175.402 12.25 146.052 0.0802935 115.442 0.0582275ZM10.5205 147.253C16.4298 154.311 21.6132 161.946 25.9921 170.043C26.7538 171.483 28.7174 171.555 28.8721 170.103C29.8384 159.558 29.2531 148.928 27.1346 138.553V138.446C27.1373 131.76 27.7707 125.089 29.0267 118.523C35.6074 118.825 42.1324 119.88 48.4736 121.665C48.7823 121.779 49.1208 121.781 49.4307 121.671C49.7407 121.56 50.0021 121.345 50.1693 121.061C50.3365 120.778 50.3993 120.444 50.346 120.12C50.2927 119.795 50.1266 119.5 49.8776 119.285C44.4908 114.18 38.495 109.759 32.0258 106.122C32.7518 103.742 33.5731 101.361 34.5252 98.9812C35.6201 96.1963 36.834 93.554 38.0955 91.0071C45.2289 93.4289 52.0269 96.744 58.3276 100.873C58.5646 101.041 58.8489 101.13 59.1394 101.125C59.4299 101.121 59.7117 101.025 59.9436 100.85C60.1756 100.675 60.3461 100.43 60.43 100.152C60.5139 99.8739 60.5068 99.5766 60.4103 99.3025C57.4078 91.0056 53.245 83.1761 48.0453 76.0475C50.9384 72.6548 54.1678 69.5645 57.6849 66.8241C64.3654 69.8003 70.6305 73.633 76.3223 78.2255C76.5225 78.3877 76.7674 78.4855 77.0243 78.5056C77.2812 78.5258 77.5381 78.4672 77.7611 78.3383C77.9842 78.2093 78.1629 78.0159 78.2737 77.7833C78.3844 77.5507 78.4218 77.2898 78.3812 77.0354C77.0574 70.5582 75.0631 64.2363 72.4306 58.1719C78.9037 55.421 85.7033 53.513 92.6626 52.495C96.8985 51.838 101.228 52.1385 105.333 53.3742C109.437 54.6099 113.213 56.7494 116.382 59.6357L127.902 70.1446C128.445 70.6458 129.163 70.9147 129.902 70.8942L167.497 70.0376C182.969 69.8829 188.539 74.6671 191.705 78.8444C198.393 87.687 201.749 101.516 201.439 118.951C190.05 120.796 139.113 127.818 118.131 110.3C119.42 106.976 119.929 103.401 119.619 99.8499C119.502 99.1118 119.102 98.4481 118.505 97.9991C117.907 97.5501 117.159 97.3508 116.417 97.4435C115.676 97.5362 114.999 97.9137 114.531 98.4959C114.062 99.0782 113.838 99.8199 113.906 100.564C113.906 100.993 115.037 111.275 105.349 116.369C104.999 116.537 104.687 116.774 104.431 117.065C104.175 117.357 103.98 117.698 103.859 118.067C103.738 118.435 103.693 118.825 103.726 119.211C103.759 119.598 103.87 119.975 104.052 120.317C104.235 120.66 104.484 120.963 104.786 121.206C105.088 121.45 105.436 121.631 105.81 121.736C106.183 121.842 106.575 121.872 106.96 121.822C107.345 121.773 107.716 121.647 108.051 121.45C110.833 120.005 113.269 117.975 115.192 115.5C137.257 137.22 177.078 147.919 189.967 150.918C186.573 155.888 182.575 160.417 178.066 164.402C174.12 167.862 169.131 169.901 163.891 170.198C155.727 170.638 135.09 168.734 114.478 161.748C106.551 159.071 99.8034 159.071 93.8528 161.748C87.9022 164.426 82.9396 169.781 78.8932 177.874L78.4166 178.85L78.1075 179.529C73.0735 190.333 68.903 201.52 65.6351 212.983C52.5182 206.271 40.8815 196.995 31.4145 185.705C21.9475 174.414 14.8427 161.339 10.5205 147.253ZM115.442 225.098C100.08 225.104 84.8904 221.859 70.8715 215.577C73.8499 204.952 77.6213 194.564 82.1538 184.503L82.6657 183.313C83.475 181.552 83.975 180.517 83.9988 180.469C88.8783 170.52 96.8045 161.915 112.562 167.27C134.103 174.566 155.203 176.494 164.141 176.006C170.671 175.651 176.891 173.111 181.802 168.794C187.868 163.559 193.041 157.373 197.119 150.478C197.335 150.082 197.455 149.64 197.467 149.189C197.479 148.738 197.385 148.29 197.191 147.883C197.191 147.883 197.191 147.883 197.191 147.824L195.144 144.349C193.51 141.567 193.047 138.251 193.854 135.128C194.662 132.004 196.675 129.328 199.452 127.687L205.188 124.307V124.224C205.747 124.048 206.239 123.706 206.597 123.241C206.954 122.777 207.161 122.214 207.188 121.629C207.89 101.468 204.248 85.9256 196.334 75.5001C190.383 67.6929 181.529 64.2772 167.438 64.42L130.973 65.2533L120.261 55.5179C116.467 52.0404 111.94 49.4589 107.016 47.9635C102.091 46.4681 96.8929 46.0973 91.8055 46.878C53.9597 52.5905 36.7863 77.3569 29.0505 97.1367C24.3001 109.539 21.6888 122.658 21.3269 135.934C16.9231 136.763 12.5959 137.958 8.39018 139.505C3.42945 117.34 5.47501 94.182 14.2443 73.2303C23.0136 52.2786 38.0739 34.5678 57.3437 22.545C76.6135 10.5222 99.1417 4.78138 121.815 6.11517C144.489 7.44896 166.189 15.7916 183.916 29.9908C201.643 44.19 214.523 63.5443 220.775 85.3796C227.028 107.215 226.344 130.453 218.819 151.883C211.294 173.313 197.298 191.877 178.767 205.009C160.235 218.142 138.083 225.195 115.37 225.194L115.442 225.098Z" fill="#0C1256"/>
<path d="M136.002 123.284L137.049 126.236C137.162 126.689 137.391 127.106 137.714 127.444C138.038 127.782 138.444 128.03 138.892 128.163C139.34 128.296 139.815 128.311 140.27 128.204C140.726 128.098 141.145 127.875 141.488 127.557L144.797 125.034C141.83 124.64 138.893 124.055 136.002 123.284Z" fill="white"/>
<path d="M179.092 127.519L181.865 130.375C182.273 130.794 182.759 131.129 183.296 131.36C183.833 131.591 184.411 131.714 184.995 131.722C185.58 131.73 186.16 131.622 186.703 131.405C187.246 131.189 187.742 130.867 188.161 130.459L191.433 127.281C187.732 127.436 183.555 127.531 179.092 127.519Z" fill="white"/>
<path d="M161.424 131.842L154.188 134.829C160.459 137.138 166.637 139.126 172.373 140.78L170.183 135.472C169.501 133.83 168.196 132.526 166.554 131.846C164.912 131.165 163.067 131.164 161.424 131.842Z" fill="white"/>
</svg>
